# xmcd
#
# Track frame offsets:
#	150
#	23735
#	44500
#	66917
#	83670
#	93220
#	114722
#	133650
#	160200
#	175955
#	192937
#	214037
#	232087
#
# Disc length: 3322 seconds
#
# Revision: 1
# Processed by: cddbd v1.5.1PL0 Copyright (c) Steve Scherf et al.
# Submitted via: CDex 1.50Beta5
#
DISCID=b10cf80d
DTITLE=東京パフォーマンスドール - Cha-DANCE Party Vol.3
DYEAR=1991
DGENRE=Pop
TTITLE0=FAME
TTITLE1=銀色のシルエット
TTITLE2=秋色協奏曲
TTITLE3=LET’S FALL IN LOVE
TTITLE4=レモンのKISS
TTITLE5=BIGIN THE 綺麗
TTITLE6=ファンタジー
TTITLE7=誓い
TTITLE8=SANTA de SAMBA
TTITLE9=・イブ
TTITLE10=PEARL-WHITE EVE
TTITLE11=恋人がサンタクロース
TTITLE12=星に願いを
EXTD=
EXTT0=
EXTT1=
EXTT2=
EXTT3=
EXTT4=
EXTT5=
EXTT6=
EXTT7=
EXTT8=
EXTT9=
EXTT10=
EXTT11=
EXTT12=
PLAYORDER=
